<svg xmlns="http://www.w3.org/2000/svg" width="110" height="60" fill="none"><g fill-rule="evenodd" clip-path="url(#a)" clip-rule="evenodd"><path fill="#fff" d="M0 0h110v60H0V0Z"/><path fill="#32313A" d="M54.257 12c11.861 0 21.554 9.439 21.554 21s-9.693 21-21.554 21c-11.876 0-21.554-9.439-21.554-21s9.678-21 21.554-21Z"/><path fill="#fff" d="M55.007 12c11.463 0 20.804 9.096 20.804 20.25S66.47 52.5 55.007 52.5c-11.462 0-20.817-9.096-20.817-20.25C34.19 21.095 43.544 12 55.007 12Z"/><path fill="#32313A" d="M81.756 36.024C80.651 49.414 69.006 60 54.89 60c-12.706 0-23.407-8.574-26.227-20.025l3.111-.238c3.65 9.647 12.649 16.491 23.116 16.491 11.703 0 21.56-8.559 24.177-19.995l2.69-.209ZM27.18 18.102v-2.043h1.57v2.043h-1.57Zm0-5.264V9.902c.261.178.494.461.494.909v2.028h-.494ZM11.61 14.21h.116c2.297.06 1.774-1.744 1.774-5.233 0-3.445.465-5.174-1.89-5.19V.002h2.21c3.01 0 5.088 2.102 5.088 3.16l-.058 11.84c0 1.744-1.818 3.101-4.696 3.101h-2.544V14.21Zm15.57-4.309v2.937l-1.265.015c-.015-1.342-.334-1.446-.77-1.446-.437.015-.771.328-.771 1.43v3.311h.727v1.954h-4.245v-1.954h.508v-4.353h-.508V9.826h3.387v1.014c.16-.402 1.018-1.192 2.122-1.237.088 0 .48.074.815.298Zm0 6.158h-.495v2.043h.495v-2.043ZM9.66 14.165l1.948.045v3.892H2.973v-3.624h.566c.524.03.727-.313.727-.685V4.31c.015-.478-.29-.612-.8-.656l-.493-.03V0h8.635v3.787H9.66v10.378Z"/><path fill="#32313A" d="M75.81 36c-1.7 9.353-9.984 16.5-19.881 16.5a20.261 20.261 0 0 1-17.28-9.67c3.212 2.614 8.967 9.776 21.204 7.63-4.723-1.254-10.522-1.874-16.336-7.918 13.69.167 23.603-3.127 32.294-6.542Z"/><path fill="#fff" d="M65.549 9.744h.074c-.03.166-.045.316-.074.481v-.48Zm0 1.323.784.812c-.207 1.592-.415 3.17-.621 4.763l2.322.135c.62-.526 1.241-1.066 1.862-1.592l2.145 1.653c.65-.601 1.286-1.217 1.937-1.834-.28-.45-.576-.886-.872-1.337.073-.405.162-.826.25-1.232l.326.376 1.716.15c.132-.796.28-1.608.413-2.404-.798-.39-1.582-.767-2.38-1.157-1.095-.03-2.19-.075-3.283-.105.103.586.206 1.157.325 1.743l.015.15-.518 2.69c-.28-.045-.562-.105-.843-.15.118-.586.222-1.187.34-1.774l.237-1.608-3.417-1.202c-.25.556-.502 1.097-.739 1.653v.27Zm2.203-5.185.932-.225.148-.015.177.015.178.045.163.075.148.105.118.135.089.165c.074.196.118.39.163.601l.117.601v.18l-.06.181-.072.166-.104.135-.133.12-.163.105c-.399.135-.828.21-1.227.316l-.149.015h-.192l-.178-.06-.148-.075-.147-.106-.12-.135-.103-.165c-.103-.33-.177-.692-.252-1.052l-.029-.135.014-.195.045-.181.089-.166.103-.135.133-.12.148-.105.312-.09Zm-23.558 5.23c.414.15.828.3 1.242.436l-.222 1.608c-.118.601-.236 1.202-.355 1.788l1.124.18.533-2.734-.03-.135-.31-1.758 3.283.105c.784.39 1.568.781 2.366 1.157l-.103-2.105-.932-1.998c1.153-1.052 2.321-2.104 3.475-3.156l.207 3.952a696.968 696.968 0 0 0 3.283-2.089c.089 1.248.163 2.48.252 3.727l2.277-4.358 3.091.12v1.879l-1.286.841c-.296.225-.577.436-.873.646l-1.656 4.419 2.395-1.713-.473-.18.178-2h3.89v.481c-.253 1.352-.489 2.705-.74 4.043l.547 1.022c-.488 1.097-.99 2.179-1.493 3.276l-1.45-1.473-1.568.631c-.591-.495-1.183-1.006-1.774-1.503l-.237-1.052-2.589 2.555-.605-2.54-.104.075v1.008l-1.627.826c-.65-.857-1.316-1.713-1.967-2.57l-.118-2.705-.415 2.36-1.714-.15-.325-.391c-.089.42-.163.84-.252 1.247l.887 1.337-1.937 1.834-2.292-1.773-1.582 1.352v-6.522Zm21.355-.316c-.03.06-.06.12-.089.196l.089.075v-.27ZM44.194 9.745 45.2 9.49l.148-.105.133-.12.118-.15.074-.166.044-.166.014-.18-.133-.616c-.044-.196-.088-.406-.162-.601l-.089-.15-.118-.136-.133-.105-.163-.09-.178-.045-.178-.015-.147.03-.237.06v2.81h.001Zm-2.691 7.77c.178-1.473.37-2.945.562-4.418l-.872-.902.828-1.833c.724.255 1.45.496 2.174.751v6.522l-.43.36-1.819-.105.237.195a824.99 824.99 0 0 0-3.712 2.57c-.355-.992-.71-1.998-1.065-2.99-.178 0-.355-.015-.532-.015L35.809 21l-3.106-2.675.695-1.774 1.065.226 1.242-3.066 1.05-2.735.858-1.683.813-1.232 1.952-.165v8.656l1.125.962Zm2.691-10.58-.695.165-.31.09-.163.09-.133.12-.103.151-.075.165-.059.18v.181l.015.15c.074.346.148.722.266 1.052l.089.165.118.135.148.106.163.074.177.045.178.016.148-.016.237-.06V6.934Z"/><path fill="#32313A" d="M61.184 18.349v-1.386c.235.014.456.03.69.045.236-.407.47-.799.707-1.206-.118-.105-.236-.196-.353-.286-.353.241-.69.497-1.044.753v-1.34c.56-.408 1.117-.799 1.676-1.206.015-.257.045-.528.06-.784-.183-.08-.37-.15-.56-.211.03-.271.06-.527.074-.784h2.442c-.235 1.296-.457 2.607-.691 3.918.162.317.322.633.485.935-.309.663-.604 1.34-.912 2.004-.339-.362-.692-.708-1.045-1.07-.514.196-1.015.407-1.529.618Zm0-8.438V7.95c.529.016 1.073.03 1.602.061v.784l-.97.633c-.22.165-.426.316-.632.482Zm5.574 1.597c.75.257 1.5.528 2.235.784l-.131 1.01c-.162.829-.324 1.657-.486 2.5.412.061.824.136 1.25.212-.587.498-1.17 1-1.75 1.507a34.591 34.591 0 0 0-1.25-.075c.19-1.462.367-2.909.558-4.37a18.763 18.763 0 0 1-.764-.784c.117-.257.22-.527.338-.784Zm1.133-3.435c.338-.075.677-.166 1.014-.242a.203.203 0 0 1 .155.023.211.211 0 0 1 .095.128c.074.286.132.557.191.844a.212.212 0 0 1-.02.16.205.205 0 0 1-.126.096c-.339.075-.677.166-1.016.241-.117.03-.234-.045-.25-.15-.073-.286-.132-.558-.205-.829a.23.23 0 0 1 .026-.17.22.22 0 0 1 .136-.101Zm3.205 3.435c.737.03 1.486.046 2.222.075.588.287 1.162.573 1.75.859-.073.407-.147.798-.206 1.206-.265-.015-.513-.046-.764-.06-.191-.227-.383-.438-.559-.648-.236.075-.471.135-.706.21-.133.724-.28 1.432-.412 2.155.235.347.456.708.691 1.07-.353.331-.691.663-1.044.994-.485-.377-.971-.769-1.47-1.145l.705-3.571c-.076-.38-.145-.762-.207-1.145Zm-33.238.83c.353-.74.75-1.447 1.221-2.11.28-.03.559-.061.839-.076v8.227l1.323 1.13c-.721.512-1.442 1.01-2.162 1.507-.309-.86-.603-1.718-.912-2.576-.103 0-.206 0-.309-.016v-1.808c.191.045.397.075.588.106l-.353-1.854c-.073.166-.161.317-.235.482v-3.013Zm23.326-4.386V9.91c-.147.105-.279.21-.427.316l-2.161 5.787c-.604.587-1.191 1.19-1.795 1.793-.191-.799-.368-1.582-.559-2.366-.412.317-.84.618-1.25.934v.92l-.706.361a165.91 165.91 0 0 0-1.471-1.929 515.166 515.166 0 0 0-.206-4.791c-.25-.542-.515-1.1-.765-1.643.647-.602 1.309-1.19 1.956-1.793.088 1.793.191 3.586.28 5.364h.485c.279-.377.559-.753.837-1.145-.117-.407-.235-.8-.352-1.206.75-.482 1.5-.964 2.235-1.431l.265 4.22c.117.09.236.18.353.286.97-1.884 1.956-3.768 2.927-5.65.119-.001.236-.001.354.014Zm0 6.976c-.545.392-1.074.769-1.603 1.16.088.407.176.799.279 1.206.411.361.838.723 1.25 1.085.03-.016.044-.03.074-.03v-1.386c-.088 0-.192-.015-.279-.015.044-.196.087-.392.132-.573.059-.045.102-.075.147-.106v-1.34Zm-18.546-2.2c.736.257 1.486.513 2.236.784-.059.331-.103.663-.147.994-.162.844-.323 1.673-.486 2.502.412.075.838.15 1.25.226-.572.497-1.161.995-1.735 1.492-.427-.015-.838-.046-1.265-.075.191-1.447.383-2.894.56-4.356l-.766-.783c.118-.271.235-.527.353-.783Zm1.118-3.435c.338-.09.676-.166 1.014-.256.118-.015.236.045.265.166.06.271.118.557.191.828a.21.21 0 0 1-.024.166.2.2 0 0 1-.137.09c-.339.09-.677.166-1.015.257-.103.03-.22-.046-.25-.151-.06-.286-.133-.557-.191-.844-.03-.105.044-.226.147-.256Zm3.485 3.436c.75.014 1.486.045 2.236.06.574.286 1.162.573 1.736.859-.062.408-.13.815-.206 1.22-.25-.03-.515-.045-.765-.075-.191-.211-.368-.422-.56-.633a9.43 9.43 0 0 0-.69.21c-.147.709-.28 1.432-.427 2.14.236.362.47.723.706 1.07-.353.332-.706.679-1.059 1.01-.486-.392-.97-.769-1.456-1.146.235-1.19.456-2.38.691-3.57-.074-.392-.132-.769-.206-1.145Zm-13.398 6.856c.088-.242.191-.467.28-.708.352.06.69.135 1.044.21.485-1.22.985-2.425 1.47-3.646.368-1.055.751-2.095 1.221-3.104v3.014c-.206.391-.397.768-.603 1.16.206.045.397.075.603.105v1.808l-1.22-.045c-.31.95-.603 1.9-.913 2.848-.63-.543-1.258-1.09-1.882-1.642Zm70.125 4.43 3.751-2.682c.456-.498.735-.95.794-1.417l-4.545 3.27v.829Zm0-1.673v-.844l4.192-3.014c.131.226.22.437.279.633l-4.471 3.225Zm0-1.673v-.843l3.441-2.471.384.557-3.825 2.757Zm0-1.687 3.044-2.185-1.396-2.004c-.501-.467-1.03-.708-1.648-.648v4.837Zm-3.692 7.685 3.691-2.652v-.829l-3.691 2.637v.844Zm3.692-12.522v4.837l-.75.543-.559-.86c-.31-.376-.883-.346-1.413.046l-.97.708v-3.09l2.176-1.52c.575-.408 1.06-.619 1.516-.664Zm0 5.68v.844l-3.692 2.638v-.844l1.383-.98c.192.106.412.166.617.136l.957-.694c.22-.195.294-.497.264-.769l.471-.33Zm0 1.673v.844l-3.692 2.637v-.829l3.692-2.652Zm-3.692.136.809-.587c-.103-.09-.177-.181-.251-.256l-.559.391v.452h.001Zm0-7.022.014.014 3.147-2.305-2.176-3.21-.986.724v4.777h.001Zm-.794 11.783.383.573.411-.301v-.844l-.794.572Zm.794-16.56v4.777c-.412-.136-.824-.558-1.22-.422l-1.133.798c-.236.347-.294.437-.03.89l.603.888c.369.317.913.227 1.369-.135l.411-.302v3.09L98.1 20.985c-.971.542-1.765.738-2.943-.452l-2.176-3.15c-.22-.346-.338-.693-.353-1.024v-.166c.03-.467.25-.92.691-1.357l6.957-5.001Zm0 11.347-2.912 2.094.205.301 2.706-1.943v-.452h.001Zm0 1.28v.845l-1.941 1.401-.384-.573 2.325-1.672Zm0 1.689v.828l-1.177.859-.382-.573 1.559-1.114Zm-67.86 15.158c-.28.269-.591.502-.927.693-.103.06-.22.121-.338.166v-.859h1.265Zm-1.265-.678v-.693h6.84v.693h-6.84Zm0-1.386v-.678h6.84v.678h-6.84Zm0-1.372v-.36c.56-.031 1.03-.287 1.383-.785.368-.482.544-1.145.544-1.989 0-.828-.177-1.492-.544-1.99-.353-.481-.823-.737-1.383-.768v-3.737c.06.03.118.045.162.075.56.242 1.103.724 1.618 1.447v-1.311h4.06v7.985c-.045 1.07.514 1.07 1 1.07v.361h-6.84v.002Zm6.84 3.436v.693h-5.06v-.693h5.06Zm-6.84.859c-.485.21-1.014.301-1.603.301l-.22.031c-1.22-.015-2.22-.407-3.015-1.19h4.838v.858Zm0-13.923v3.737h-.014c-.618.045-1.088.316-1.397.814a3.716 3.716 0 0 0-.53 1.687v.256c0 .708.162 1.326.471 1.884.309.557.794.859 1.456.89h.014v.36h-6.647a11.032 11.032 0 0 1-.309-2.666c0-.212 0-.452.015-.694.014-.24.044-.482.073-.723a9.118 9.118 0 0 1 1.442-4.023c.809-1.206 2-1.808 3.603-1.808h.22c.56 0 1.103.09 1.603.286Zm0 10.321v.678h-6.176c-.088-.21-.177-.452-.265-.678h6.441Zm0 1.372v.693H25.74c-.073-.12-.147-.226-.22-.346a2.743 2.743 0 0 1-.206-.347h5.838Zm44.255-.422v-.829l1.353-.361-.015.015a5.694 5.694 0 0 1-1.338 1.175Zm0-1.537v-.709l2.221-.618a4.717 4.717 0 0 1-.294.799l-1.927.528Zm0-1.417v-.708l2.338-.648c.03.241.03.482 0 .708l-2.338.648Zm0-1.431v-1.507l1.897-.512.264 1.055c.045.12.06.24.089.347l-2.25.617Zm0-2.983v-5.395c.278.468.487.975.617 1.506l.912 3.467-1.53.422Zm0-5.395v5.395l-2.412.663v-7.836c.087.03.192.06.28.09.926.332 1.632.89 2.132 1.688Zm0 6.871v1.507l-1.927.527c-.014-.166-.059-.347-.102-.542l-.236-.874 2.265-.618Zm0 2.23v.708l-2.412.663v-.06c.192-.15.338-.331.412-.558.029-.075.044-.15.06-.226l1.94-.527Zm0 1.416v.709l-2.412.663v-.708l2.412-.664Zm0 1.417v.829a8.407 8.407 0 0 1-2.162.919c-.088.014-.177.045-.25.06V37.35l2.412-.663Zm-4.75-8.077 1.441-.391-.147-.528c-.191-.768-.427-1.28-.692-1.537a.82.82 0 0 0-.602-.241v-3.134a5.984 5.984 0 0 1 2.338.195v7.836l-2.338.633V28.61Zm2.338 6.555v.06l-.221.062c.074-.046.148-.077.221-.122Zm0 .769v.708l-2.338.647v-.723l2.338-.632Zm0 1.416v1.145c-.824.196-1.603.271-2.338.21v-.707l2.338-.648Zm-2.338-1.492v-.708l.411-.105c.045.06.103.12.162.18.236.196.515.271.883.242l-1.456.391Zm0-1.417v-.18a.79.79 0 0 1 .058.165l-.058.015Zm-1.398-5.454 1.398-.377v2.834l-.692.195.589 2.245c.029.135.073.257.103.377v.181l-4.104 1.13a3.802 3.802 0 0 1-.117-.376l-1.544-5.937a5.017 5.017 0 0 1-.193-1.19v-.347c.045-.95.384-1.808 1.03-2.577.81-.98 1.986-1.672 3.501-2.094a8.463 8.463 0 0 1 1.427-.271v3.134a1.982 1.982 0 0 0-.632.075c-.957.271-1.25 1.1-.897 2.486l.131.512Zm1.398 6.163-3.854 1.055c.103.226.22.422.353.618l3.5-.965v-.708Zm0 1.416v.723l-2.37.648a4.433 4.433 0 0 1-.66-.527l3.03-.844Zm0 1.432v.709a5.742 5.742 0 0 1-1.442-.317l1.442-.392ZM58.684 20.85l1.279-.12.324 3.736c.16.543.44.83 1.088.874l.308 3.542-.883.422-.265 1.025.28 3.179c.176.663.677 1.296 1.706 1.19l.03.467-3.869.347V20.85h.002Zm0 18.79v-.677l4.161-.377.06.678-4.221.377Zm0-1.37v-.694l4.044-.362.058.678-4.102.377Zm0-1.387v-.678l3.926-.362.06.694-3.986.346Zm-3.927-1.025-.044-.452c1.015-.09 1.411-.798 1.47-1.492l-.264-3.18-.427-.963-.94-.256-.295-3.542c.618-.15.853-.497.912-1.055l-.309-3.736 3.824-.332v14.662l-3.927.346Zm3.927.347v.678l-3.81.346-.06-.678 3.87-.346Zm0 1.37v.694l-3.692.332-.059-.678 3.75-.347Zm0 1.387v.678l-3.575.331-.059-.693 3.634-.316Zm34.15-7.986v-.723l2.839-1.055.221.633-3.06 1.145Zm0-1.461 2.604-.965-.221-.648-2.382.89v.723Zm0-1.462v-.723l1.913-.724.234.648-2.146.799Zm0-1.462V25.01c.295.678 1.03.814 1.53.527l.161.422-1.69.633Zm-4.103 5.184.236.648-3.546 1.326v-.739l3.31-1.235Zm4.104-6.766v1.583l-3.766 1.401-.162-.422-1.646-4.656c-.427-.557-.824-.829-1.31-.663-.279.106-.44.331-.53.618v-4.792c.207-.211.457-.407.706-.557 2.133-1.16 4.5.406 4.898 1.928l1.177 3.526-.088.031.72 2.003Zm0 2.32-3.531 1.312.221.647 3.31-1.235v-.723Zm0 1.462v.724l-2.854 1.07-.22-.648 3.074-1.146Zm0 1.462-2.618.98.235.632 2.383-.889v-.723Zm-7.414 2.035 3.09-1.161-.236-.632-2.854 1.055v.738Zm0-1.463v-.738l2.398-.89.22.648-2.618.98Zm0-1.461 2.162-.814-.146-.437c-.236.196-.618-.075-.912-.753l-.897-2.532a4.43 4.43 0 0 1-.207-.753v5.289Zm0 4.385-2.852 1.055-.236-.633 3.088-1.16v.738Zm0-15.672v4.792c-.103.347-.088.784 0 1.206v5.289l-4.235 1.567-.147-.422c.941-.346.824-1.025.706-1.702l-1.074-2.999-.647-.829h-.956l-1.191-3.345 5.618-2.08.456 1.296c.029-.377.53-1.823 1.47-2.773Zm0 12.01-4 1.492.22.648 3.78-1.402v-.738Zm0 1.462-3.544 1.326.222.648 3.323-1.236v-.738Zm-37.827 7.76v.693h-7.486v-.693h7.486Zm0-1.371v.693h-7.486v-.693h7.486Zm0-1.372v.678h-7.486v-.678h7.486ZM46.08 25.973v1.402c.191-.422 1.559-2.396 3.162-2.366 1.897.03 3.192 2.185 3.353 3.511l-.073 3.722h-3.633c-.294-1.703-.544-2.833-1.397-2.848-.853-.015-1.161 1.25-1.161 2.306v2.682c.043.753.69 1.13 1.264 1.04v.451h-7.487v-.452c1.015 0 1.132-.678 1.236-1.356v-3.194l-.323-.994-.912-.347v-3.556h5.97ZM22.533 39.31v.753H13.68v-.753h8.854Zm0-1.371v.693H13.68v-.693h8.854Zm0-1.372v.678H13.68v-.678h8.854Zm-12.28 2.743v.753H1.485v-.753h8.766Zm0-1.371v.693H1.485v-.693h8.766Zm0-1.372v.678H1.485v-.678h8.766ZM8.56 34.321c.118.814.309.663.868 1.16h.824v.392H1.486v-.392h1.118c1.015-.286 1.28-.965 1.25-1.778l.016-7.232c-.06-.814-.544-1.236-1.265-1.281H1.486v-3.903H7.87l3.516 6.012 2.78-6.012h8.368v3.903h-1.118c-.81.12-1.412.617-1.338 1.507v7.368c.073.783.529 1.402 1.338 1.416h1.118v.392h-8.854v-.392c.897-.15 1.06-.377 1.132-.919l.015-2.29-3.088 2.697-3.192-2.893.015 2.245Z"/></g><defs><clipPath id="a"><path fill="#fff" d="M0 0h110v60H0z"/></clipPath></defs></svg>