<svg xmlns="http://www.w3.org/2000/svg" width="108" height="50" fill="none"><path fill="#32313A" fill-rule="evenodd" d="m44.998 22.84-12.02.431 11.413.64.607-1.071Zm-1.438 2.546-12.048.432 11.455.642.593-1.074Zm-1.438 2.567-12.033.426 11.442.641.592-1.067Zm-1.408 2.555-12.048.433 11.428.64.62-1.073Zm14.729-20.52L40.1 10.54l15.385.862-.043-1.412Zm-.097-2.526-13.782.487 13.825.8-.043-1.287Zm-.099-2.437-12.279.407 12.338.69-.059-1.097Zm-.083-2.502-10.763.362 10.806.644-.043-1.006ZM55.094.5h-9.36l9.375.501L55.095.5ZM39.264 33.061l-12.02.439h11.774l.246-.439Z" clip-rule="evenodd"/><path fill="#32313A" fill-rule="evenodd" d="M80.644.5H62.91l-.503.89 8.874.472c.104 0 .104.148-.045.148l-9.346.312-.902 1.58 8.814.52c.118.015.089.178-.015.178l-9.362.308-.87 1.512 8.798.489c.192.014.192.178 0 .178l-9.346.328-.888 1.58 8.77.504c.192.015.178.192 0 .192l-9.346.334-.903 1.561 8.784.489c.133.015.149.178-.029.178l-26.931.903 25.556 1.42c.162 0 .147.208-.03.208l-26.975.962 25.556 1.42c.118 0 .147.193-.03.193l-27.02.977 25.556 1.42c.104.015.206.208-.014.223l-26.977.96 25.556 1.42c.074.016.147.208-.03.208l-13.576.484.044 1.227 12.098.672c.088.015.133.193-.03.193l-12.023.427.059 1.372 10.5.584c.104.015.148.222-.03.222l-10.411.366.045 1.505 8.948.497c.103.015.132.207-.045.207l-8.858.317.058 1.655 7.395.411c.104.015.104.193-.044.193l-7.32.265.029.712h23.87c6.33 0 12.008-4.618 13.073-8.288 1.066-3.67 1.066-6.986-4.022-8.643 2.84-.652 7.779-3.857 8.755-8.29.886-4.026-.592-8.14-7.484-8.155ZM68.637 26.205h-7.335l4.14-7.341h5.444c5.62 0 2.898 7.341-2.249 7.341Zm9.494-15.749c-.237.888-2.012 3.138-4.259 3.138H68.43l3.49-6.156h2.78c3.549.118 3.667 2.13 3.431 3.018Zm29.382 34.058c0-2.845-2.363-5.228-5.205-5.228-2.917 0-5.298 2.42-5.298 5.394a5.299 5.299 0 0 0 5.316 5.32c2.159 0 4.208-1.478 4.817-3.491h-2.695c-.535.85-1.235 1.237-2.197 1.237-1.217 0-2.306-.831-2.657-2.014h7.789c.093-.571.13-.849.13-1.218Zm-7.992-.713c.35-1.385 1.458-2.272 2.824-2.272 1.366 0 2.437.869 2.769 2.272h-5.593ZM72.522 39.78v.83c-.774-.832-1.897-1.305-3.097-1.305-2.658 0-4.924 2.272-4.924 5.228 0 2.789 2.005 5.29 4.977 5.29 1.31 0 2.307-.303 3.248-1.374v1.312h2.253v-9.98h-2.457Zm-2.75 7.927a3.094 3.094 0 0 1-3.096-3.097 3.099 3.099 0 0 1 3.095-3.098 3.094 3.094 0 0 1 3.095 3.098 3.099 3.099 0 0 1-3.095 3.097Zm-64.376-8.42c-1.014 0-1.79.35-2.64 1.22v-.98H.487V49.76h2.456v-4.821c0-1.311.11-3.399 1.919-3.399 1.698 0 1.883 1.958 1.883 3.214v5.006h2.454v-5.486c0-1.441-.11-2.124-.498-2.937-.572-1.22-1.92-2.05-3.304-2.05Zm15.254 5.228c0-2.845-2.363-5.228-5.205-5.228-2.917 0-5.298 2.42-5.298 5.394a5.301 5.301 0 0 0 3.278 4.92 5.292 5.292 0 0 0 2.038.4c2.16 0 4.208-1.478 4.817-3.491h-2.694c-.535.85-1.237 1.237-2.197 1.237-1.218 0-2.307-.831-2.658-2.014h7.79c.092-.571.129-.849.129-1.218Zm-7.992-.713c.35-1.385 1.458-2.272 2.825-2.272 1.366 0 2.436.869 2.768 2.272h-5.593Zm48.383 5.95h2.455V36.1H61.04v13.65Zm20.414-10.465c-1.015 0-1.791.35-2.64 1.22v-.98h-2.27V49.76H79v-4.821c0-1.311.11-3.399 1.92-3.399 1.697 0 1.882 1.958 1.882 3.214v5.006h2.455v-5.486c0-1.441-.11-2.124-.498-2.937-.572-1.22-1.92-2.05-3.304-2.05Zm9.93 2.254c1.125 0 1.771.37 2.381 1.403h2.768c-.757-2.197-2.694-3.657-5.057-3.657-2.99 0-5.39 2.382-5.39 5.32 0 2.955 2.418 5.393 5.39 5.393a5.477 5.477 0 0 0 4.023-1.791c.517-.573.702-.906 1.034-1.81h-2.768c-.573.886-1.31 1.347-2.233 1.347-1.718 0-2.99-1.33-2.99-3.103 0-1.79 1.217-3.102 2.842-3.102Zm-61.352 4.23-1.739-6.243H26.32l-1.757 6.243-2.079-6.243h-2.165l3.414 10.233h1.572l1.994-6.631 1.938 6.63h1.65l3.274-10.232h-2.03l-2.097 6.243Zm13.152-6.474c-1.2 0-2.322.473-3.097 1.304v-4.5h-2.455v13.65h2.252v-1.31c.941 1.071 1.938 1.373 3.248 1.373 2.972 0 4.977-2.5 4.977-5.29 0-2.955-2.266-5.227-4.925-5.227Zm-.346 8.41a3.094 3.094 0 0 1-3.095-3.097 3.099 3.099 0 0 1 3.095-3.098 3.094 3.094 0 0 1 3.096 3.098 3.099 3.099 0 0 1-3.096 3.097Zm14.106-7.927v.83c-.775-.832-1.897-1.305-3.097-1.305-2.658 0-4.925 2.272-4.925 5.228 0 2.789 2.005 5.29 4.977 5.29 1.31 0 2.307-.303 3.248-1.374v1.312H59.4v-9.98h-2.455Zm-2.75 7.927A3.094 3.094 0 0 1 51.1 44.61a3.099 3.099 0 0 1 3.095-3.098 3.094 3.094 0 0 1 3.095 3.098 3.099 3.099 0 0 1-3.095 3.097Z" clip-rule="evenodd"/></svg>