<svg xmlns="http://www.w3.org/2000/svg" width="110" height="60" fill="none"><g clip-path="url(#a)"><path fill="#fff" fill-rule="evenodd" d="M0 0h110v60H0V0Z" clip-rule="evenodd"/><path fill="#32313A" d="M23.97 22.5h-8.82c-1.54 0-2.79 1.237-2.79 2.762V34.7c0 1.525 1.25 2.761 2.79 2.761h8.82c1.542 0 2.79-1.236 2.79-2.761v-9.438c0-1.525-1.249-2.762-2.79-2.762Zm-1.472 8.696 2.002 5.85-4.778-3.676-4.617 3.644 1.84-5.69-4.262-3.197h5.295l1.679-5.211 1.776 5.21h4.972l-3.907 3.07ZM58.25 37.5c-1.797 0-3.255-1.443-3.255-3.223v-8.25c0-1.78 1.458-3.223 3.255-3.223h8.047v3.954H59.29v1.417h7.007v3.954H59.29v1.417h7.007V37.5H58.25ZM40.3 26.027c0-1.78-1.458-3.223-3.255-3.223h-8.875V37.5h4.294V26.757h3.541V37.5H40.3V26.027ZM3.255 37.5C1.457 37.5 0 36.057 0 34.277v-8.25c0-1.78 1.457-3.224 3.255-3.224h7.896v3.954H4.295v6.79h6.856V37.5H3.255Zm36.858-14.697h4.445l2.939 8.953 3.014-8.953h4.445L49.983 37.5H45.01l-4.897-14.697ZM90.133 37.5c1.797 0 3.255-1.443 3.255-3.223v-2.88c0-1.779-1.458-3.222-3.255-3.222h-4.506v-1.418h7.234v-3.953h-8.273c-1.797 0-3.254 1.443-3.254 3.223v2.878c0 1.78 1.457 3.223 3.254 3.223h4.58v1.418h-7.835V37.5h8.8Zm15.839 0h-8.047c-1.797 0-3.254-1.443-3.254-3.223v-8.25c0-1.78 1.457-3.223 3.254-3.223h8.047v3.954h-7.007v1.417h7.007v3.954h-7.007v1.417h7.007V37.5ZM77.72 31.92a3.225 3.225 0 0 0 2.104-3.014v-2.88c0-1.78-1.458-3.222-3.255-3.222h-8.725V37.5h4.295v-8.355l3.843 8.355h4.37l-2.632-5.58Zm-2.04-3.756h-3.542v-1.417h3.541v1.417Zm33.89-4.706a1.424 1.424 0 0 0-1.039-.423c-.403 0-.748.141-1.032.423-.287.284-.43.625-.43 1.025 0 .403.142.747.426 1.03.285.285.63.428 1.037.428.406 0 .752-.143 1.038-.428.287-.284.43-.628.43-1.03 0-.401-.143-.743-.43-1.025Zm-.145 1.915a1.217 1.217 0 0 1-.894.368c-.35 0-.647-.123-.892-.368a1.216 1.216 0 0 1-.366-.89c0-.346.122-.64.368-.884.246-.246.543-.368.89-.368.349 0 .647.122.894.368.245.244.367.538.367.884 0 .348-.122.645-.367.89Z"/><path fill="#32313A" d="M109.988 25.481a.215.215 0 0 1-.016-.078 1.389 1.389 0 0 1-.005-.112v-.11a.356.356 0 0 0-.104-.232c-.069-.08-.179-.129-.329-.147a.87.87 0 0 0 .277-.073.312.312 0 0 0 .187-.296c0-.188-.099-.315-.296-.38-.11-.035-.284-.053-.521-.053h-.667v1.5h.336v-.592h.265c.178 0 .303.016.374.048.12.056.18.171.18.345v.119l.007.048.005.017.004.015H110l-.012-.019Zm-.515-.792a1.144 1.144 0 0 1-.32.034h-.303v-.544h.286c.187 0 .322.019.406.056.085.037.127.11.127.22 0 .115-.065.193-.196.234Z"/></g><defs><clipPath id="a"><path fill="#fff" d="M0 0h110v60H0z"/></clipPath></defs></svg>