<svg xmlns="http://www.w3.org/2000/svg" width="110" height="60" fill="none"><g clip-path="url(#a)"><path fill="#fff" fill-rule="evenodd" d="M0 0h110v60H0V0Z" clip-rule="evenodd"/><path fill="#32313A" d="M.306 45.46V30.977h3.972c2.2 0 3.972.086 3.972.23 0 .114.153.974.306 1.92.183.947.672 3.987 1.1 6.74.427 2.754.916 5.794 1.069 6.74.153.946.275 1.807.275 1.95 0 .115.122.2.275.2.153 0 .336-.544.397-1.204.061-.688.672-4.674 1.314-8.919l1.222-7.686 3.973.086 3.972.086V59.8h-4.89l-.152-9.895c-.092-5.449-.183-9.75-.244-9.55-.03.172-.764 4.503-1.59 9.607-.855 5.077-1.588 9.436-1.68 9.636-.091.23-.855.345-2.414.345-2.536 0-2.383.143-2.78-2.725a50.366 50.366 0 0 0-.459-2.868c-.152-.774-.55-3.24-.916-5.449-.886-5.535-1.222-7.026-1.559-7.026-.152 0-.275 3.67-.275 9.034v9.034H.306V45.46Zm23.527 14.253c0-.143 1.253-6.596 2.75-14.34 1.528-7.742 2.75-14.167 2.75-14.253 0-.086 1.406-.114 3.117-.086l3.147.086.336 1.578c.184.86.49 2.351.673 3.298.183.946.55 2.81.794 4.158.275 1.348.886 4.56 1.406 7.17.519 2.61 1.13 5.822 1.375 7.17.275 1.348.61 2.982.763 3.642.459 1.864.52 1.807-2.291 1.807-1.436 0-2.597-.029-2.597-.086 0-.058-.153-.86-.306-1.807-.183-.918-.397-2.122-.489-2.639l-.153-.946-2.658.086-2.628.086-.366 2.237c-.55 3.24-.367 3.069-3.178 3.069-1.345 0-2.445-.115-2.445-.23Zm10.695-9.406c0-.43-1.895-10.583-1.986-10.698-.061-.057-.184.201-.275.574-.306 1.29-1.711 9.435-1.711 9.865 0 .345.427.43 1.986.43 1.1 0 1.986-.085 1.986-.171Zm8.555-4.847V30.977h5.5c4.89 0 5.653.057 6.723.574 2.872 1.376 3.147 2.781 2.994 14.77-.122 10.123-.153 10.352-2.108 12.102-1.406 1.233-2.903 1.491-8.434 1.52h-4.675V45.46Zm9.411 9.808c.459-.459.52-1.405.612-9.607.091-8.92.06-9.149-.55-9.895-.581-.688-.856-.774-2.628-.774h-1.956v20.993l1.986-.115c1.345-.086 2.17-.286 2.536-.602Zm8.617-9.78V30.978h5.5c6.111 0 6.967.172 8.342 1.692 1.405 1.577 1.497 2.323 1.375 13.078l-.092 10.037-.825 1.348c-.458.717-1.375 1.635-1.986 2.008-1.07.602-1.528.66-6.722.774L61.11 60V45.489Zm9.32 9.723.763-.689v-9.206c0-10.812.153-10.324-3.208-10.324H66v20.936h1.833c1.559 0 1.986-.115 2.598-.717Zm9.013-9.751V30.977h12.834v4.015h-7.945v6.883h6.111v4.015h-6.11l.06 4.962.092 4.932 4.217.086 4.216.086-.091 1.922-.092 1.921-6.63.086-6.662.058V45.46Zm15.187 14.31c-.123-.114-.214-6.653-.214-14.51V30.976h5.714l2.261 7.17c1.222 3.957 2.352 7.17 2.475 7.17.122 0 .244-3.213.244-7.17v-7.17H110v28.994l-2.658-.086-2.689-.086-.825-2.724c-2.353-7.944-4.034-13.193-4.186-13.193-.092 0-.184 3.585-.184 7.945v7.972l-2.291.086c-1.284.029-2.414 0-2.536-.114ZM4.858 28.684c-1.802-.43-3.3-1.406-4.094-2.725C.092 24.898 0 24.41 0 22.001v-2.782h4.889v2.15c0 1.95.092 2.266.794 2.926.673.63.978.717 2.048.573.702-.086 1.436-.401 1.65-.66.488-.63.488-3.785 0-4.588-.214-.344-1.742-1.807-3.423-3.27C.398 11.59 0 10.96 0 6.888c0-3.126.611-4.503 2.383-5.65 2.414-1.52 7.15-1.549 9.656-.086 1.894 1.118 2.414 2.18 2.567 5.248l.122 2.495h-4.95V7.46c0-1.892-.642-3.04-1.803-3.298-2.108-.43-3.453 1.262-2.964 3.7.245 1.176.458 1.405 5.133 5.449 2.017 1.72 3.514 3.298 3.881 4.015 1.253 2.38 1.1 7.657-.214 9.35-1.039 1.318-2.903 2.064-5.5 2.179-1.283.057-2.842-.029-3.453-.172Zm16.225-12.189V4.02h-5.5V.004H31.32v4.015h-5.347v24.95h-4.889V16.494ZM33 14.487V.004h12.833V3.99l-3.88.086-3.911.086v6.883l2.994.086 2.964.086v3.987h-6.111v9.75h8.555v4.015H33V14.488Zm19.097 14.138c-.122-.372-.58-3.01-2.903-16.433-.672-3.929-1.436-8.202-1.68-9.464-.245-1.262-.458-2.38-.458-2.495 0-.143 1.16-.23 2.566-.23 2.995 0 2.75-.257 3.24 3.442.152 1.348.58 4.388.916 6.74.336 2.38.703 5.019.794 5.879.184 1.72.367 2.438.58 2.266.154-.172.826-4.646 2.323-15.516l.397-2.81H60.5c2.597 0 2.658.029 2.536.66-.397 2.208-4.094 23.66-4.37 25.294-.519 3.24-.244 3.012-3.544 3.012-2.047 0-2.933-.115-3.025-.345Zm12.68-14.138V.004h12.987l-.092 2.007-.122 2.008h-7.578v7.17h6.142l-.092 1.95-.091 1.921-2.964.086-2.995.086v9.694l4.217.086 4.186.086.092 1.95.091 1.922h-13.78V14.486Z"/></g><defs><clipPath id="a"><path fill="#fff" d="M0 0h110v60H0z"/></clipPath></defs></svg>