<svg xmlns="http://www.w3.org/2000/svg" width="110" height="60" fill="none"><g clip-path="url(#a)"><path fill="#fff" fill-rule="evenodd" d="M0 0h110v60H0V0Z" clip-rule="evenodd"/><path fill="#32313A" d="M59.076 23.51c-.572-.007-1.019-.148-1.337-.42-.318-.272-.478-.63-.483-1.073h-.788v10.937h.788c.005-.443.165-.801.483-1.073.318-.272.765-.413 1.337-.42h9.789v5.165c-.844.767-2.343 1.613-4.496 2.535-2.152.922-5.014 1.426-8.586 1.508-2.961.005-5.686-.577-8.17-1.745-2.487-1.17-4.486-2.948-5.998-5.34-1.512-2.39-2.288-5.417-2.33-9.08.036-3.503.823-6.414 2.36-8.736 1.536-2.321 3.604-4.058 6.203-5.21 2.598-1.154 5.51-1.73 8.73-1.728 2.551.035 4.856.393 6.916 1.07 2.06.678 3.7 1.464 4.918 2.356 1.218.892 1.844 1.678 1.873 2.355-.01.446-.046.799-.113 1.057l.788.56 5.515-10.189-.795-.373c-.131.202-.31.368-.52.482-.226.13-.47.197-.731.202-.22-.016-.832-.262-1.834-.738-1.001-.475-2.268-1.08-3.795-1.811-1.638-.586-3.515-1.11-5.632-1.57-2.117-.462-4.352-.704-6.705-.73-4.036-.013-7.971.799-11.803 2.433-3.833 1.636-7.01 4.17-9.527 7.602-2.518 3.433-3.824 7.837-3.917 13.214.06 5.378 1.215 9.781 3.462 13.214 2.246 3.433 5.22 5.966 8.92 7.602 3.7 1.634 7.76 2.447 12.183 2.434 3.304-.044 6.415-.48 9.327-1.306 2.911-.827 5.477-1.777 7.694-2.852 2.217-1.075 3.934-2.007 5.153-2.797v-.87c-.364-.083-.629-.242-.788-.475-.16-.231-.239-.592-.235-1.08V26.367c.01-.674.118-1.16.328-1.46.208-.301.46-.477.754-.529v-.87l-18.938.001Zm44.658-7.677a1.805 1.805 0 0 0 1.555-.892c.166-.288.253-.617.251-.951a1.86 1.86 0 0 0-.251-.945 1.822 1.822 0 0 0-.653-.649 1.82 1.82 0 0 0-1.81 0 1.807 1.807 0 0 0-.908 1.594c.004.357.088.675.252.95.163.278.384.494.656.652.273.157.576.237.908.24Zm-1.458-1.844c.003-.293.068-.554.196-.783.128-.23.301-.41.52-.543a1.45 1.45 0 0 1 1.478 0c.217.133.388.313.516.543.129.229.193.49.196.783.003.277-.065.55-.196.792a1.44 1.44 0 0 1-.516.543 1.418 1.418 0 0 1-.736.202 1.404 1.404 0 0 1-.732-.195 1.44 1.44 0 0 1-.53-.55 1.64 1.64 0 0 1-.196-.792Zm1.079.146h.359l.545.92h.35l-.587-.935a.648.648 0 0 0 .382-.164c.1-.091.151-.231.155-.42 0-.208-.061-.36-.183-.458-.121-.097-.302-.146-.547-.145h-.786v2.121h.312v-.92Zm0-.272v-.657h.426a.665.665 0 0 1 .306.056c.091.042.138.127.144.255-.005.158-.055.255-.153.295a.83.83 0 0 1-.35.05l-.373.001Z"/><path fill="#32313A" d="M32.787 35.642c-.774-1.82-1.292-3.758-1.606-5.76a34.087 34.087 0 0 1-.392-4.887v-.034c.021-1.33.125-2.659.311-3.976a25.347 25.347 0 0 1 .783-3.6c.343-1.19.797-2.344 1.355-3.448a18.03 18.03 0 0 1 1.755-2.85c.279-.374.568-.741.866-1.1V6.843c-.014-.505.055-.863.205-1.077.151-.215.466-.319.946-.313V4.81h-8.177v.642c.481-.006.803.098.966.313.163.214.239.572.226 1.077v19.176c.023 1.876-.232 3.435-.764 4.578-.532 1.142-1.476 1.968-2.83 2.481-1.354.514-3.253.766-5.698.757-2.445.01-4.345-.244-5.699-.757-1.354-.512-2.297-1.34-2.83-2.481-.531-1.143-.786-2.702-.764-4.578V6.843c-.011-.505.064-.863.227-1.077.163-.215.484-.319.966-.313V4.81H4.459v.642c.479-.006.796.098.945.313.151.214.22.572.205 1.077V27.13c.04 4.383 1.378 7.469 4.016 9.26 2.638 1.789 6.34 2.653 11.108 2.592 4.767.061 8.47-.802 11.108-2.592.337-.23.652-.478.946-.75Zm35.781-13.09h6.36c-.014-.251-.021-.506-.024-.766.028-2.632.648-4.82 1.856-6.565 1.21-1.744 2.836-3.049 4.88-3.916 2.046-.866 4.337-1.3 6.87-1.298 2.009.027 3.823.296 5.444.804 1.62.51 2.91 1.1 3.87 1.77.959.671 1.45 1.262 1.473 1.771-.008.335-.038.6-.09.795l.621.42 4.342-7.656-.627-.28a1.106 1.106 0 0 1-.408.362 1.242 1.242 0 0 1-.576.152c-.173-.013-.654-.198-1.443-.556-.789-.356-1.784-.81-2.987-1.36-1.29-.44-2.766-.834-4.432-1.18a27.267 27.267 0 0 0-5.278-.549c-3.175-.009-6.271.6-9.288 1.83l-.213.088-6.474 11.77-2.451-1.712.214-.844a1.6 1.6 0 0 0 .033-.163v-.004a5.091 5.091 0 0 0 .04-.518l-.004-.015c-.003-.003-.003-.006-.004-.008a.826.826 0 0 0-.092-.169l-.002-.003a1.978 1.978 0 0 0-.098-.132c-.968 2.1-1.478 4.55-1.528 7.353.004.193.008.387.016.58Zm10.658 8.745v6.682c2.657.982 5.543 1.469 8.657 1.461 2.601-.033 5.047-.36 7.34-.98 2.292-.623 4.309-1.336 6.055-2.144 1.744-.807 3.096-1.509 4.056-2.103v-.654c-.289-.064-.495-.182-.622-.357-.126-.174-.188-.446-.185-.813v-9.204c.008-.506.093-.872.257-1.096.163-.226.362-.359.593-.397v-.654h-14.9c-.452-.006-.802-.111-1.054-.316a1.007 1.007 0 0 1-.38-.806h-.621v8.22h.62a1.01 1.01 0 0 1 .38-.807c.251-.205.602-.31 1.054-.316h7.702v3.88c-.664.577-1.843 1.212-3.537 1.906-1.693.693-3.947 1.071-6.755 1.133-2.33.004-4.473-.434-6.431-1.312a11.098 11.098 0 0 1-2.23-1.323ZM9.315 58.37H8.52v-.499a8.81 8.81 0 0 0-.286.2 2.368 2.368 0 0 1-1.415.428c-.427 0-.79-.14-1.087-.42-.297-.278-.444-.635-.444-1.067 0-.355.077-.642.23-.86.155-.22.375-.393.66-.517a3.577 3.577 0 0 1 1.04-.256c.405-.044.839-.077 1.302-.101v-.122a.92.92 0 0 0-.095-.444.68.68 0 0 0-.274-.276 1.17 1.17 0 0 0-.407-.131 3.366 3.366 0 0 0-1.197.049 5.25 5.25 0 0 0-.796.236h-.043v-.8c.155-.043.38-.089.674-.138.288-.05.579-.075.87-.075.333 0 .624.028.872.082.247.055.462.147.642.278.178.128.315.295.408.498.093.204.14.456.14.758v3.177Zm-.794-1.152v-1.302c-.243.015-.53.036-.858.063-.33.029-.59.069-.783.121-.229.066-.414.164-.556.301-.141.136-.212.322-.212.56 0 .267.082.47.246.604.164.135.414.203.75.203.28 0 .537-.053.768-.16.232-.108.447-.239.645-.39Zm13.82 1.152h-.798v-.52c-.269.21-.526.37-.772.482-.257.113-.534.17-.814.167-.499 0-.886-.15-1.163-.451-.277-.3-.416-.741-.416-1.322V53.69h.798v2.664c0 .236.011.439.034.61.023.167.071.311.144.431a.673.673 0 0 0 .297.269c.12.056.299.084.53.084a1.7 1.7 0 0 0 .677-.16c.245-.105.473-.242.685-.406V53.69h.797v4.682Zm12.516-1.347c0 .425-.179.776-.536 1.05-.357.274-.846.411-1.465.411-.35 0-.673-.042-.966-.124a4.224 4.224 0 0 1-.736-.27v-.884h.044c.25.187.53.335.84.446.308.11.603.165.886.165.35 0 .625-.056.822-.167a.563.563 0 0 0 .298-.528c0-.186-.055-.324-.161-.42-.108-.095-.314-.176-.62-.243a12.828 12.828 0 0 0-.443-.088 8.016 8.016 0 0 1-.499-.109c-.415-.108-.71-.268-.884-.48a1.185 1.185 0 0 1-.261-.777c0-.192.04-.374.12-.544.081-.169.203-.322.368-.455a1.75 1.75 0 0 1 .605-.313c.266-.079.542-.118.82-.115.283 0 .57.035.86.102.25.055.492.139.723.25v.841h-.042a2.832 2.832 0 0 0-.743-.375 2.59 2.59 0 0 0-.858-.153c-.29 0-.536.055-.738.164a.533.533 0 0 0-.3.494c0 .191.06.337.182.434.118.1.31.178.577.24.147.033.311.068.494.101.182.033.334.064.456.092.37.084.656.227.857.431.2.208.3.481.3.824Zm12.135 1.306a4.142 4.142 0 0 1-.964.135c-.484 0-.851-.13-1.103-.386-.251-.257-.378-.669-.378-1.236v-2.487h-.538v-.662h.538V52.35h.798v1.344h1.647v.662h-1.647v2.132c0 .247.005.438.017.576a.95.95 0 0 0 .118.388.572.572 0 0 0 .257.245c.11.053.275.078.498.078.13 0 .266-.02.407-.057a2.97 2.97 0 0 0 .305-.095h.043l.002.707Zm12.451-3.779h-.042a3.339 3.339 0 0 0-.348-.06 3.417 3.417 0 0 0-.395-.018c-.247 0-.484.053-.712.16-.23.108-.45.247-.663.417v3.322h-.797v-4.678h.797v.69c.317-.25.595-.428.838-.534.243-.104.489-.157.74-.157.138 0 .24.004.302.01.063.008.156.02.28.04v.808Zm12.368 3.82h-.794v-.499c-.071.047-.164.114-.286.2a2.35 2.35 0 0 1-.808.362 2.549 2.549 0 0 1-.607.066c-.427 0-.79-.14-1.085-.42-.297-.278-.446-.635-.446-1.067 0-.355.077-.642.231-.86a1.54 1.54 0 0 1 .66-.517 3.578 3.578 0 0 1 1.039-.256c.404-.044.838-.077 1.302-.101v-.122a.913.913 0 0 0-.096-.444.694.694 0 0 0-.274-.276 1.171 1.171 0 0 0-.407-.131 3.366 3.366 0 0 0-1.197.049 5.24 5.24 0 0 0-.798.236h-.043v-.8c.157-.043.382-.089.676-.138a5.14 5.14 0 0 1 .87-.075c.333 0 .623.028.872.082.246.055.462.147.643.278.177.128.313.295.407.498.093.204.14.456.14.758v3.176h.001Zm-.794-1.152v-1.302c-.286.018-.573.039-.859.063a4.647 4.647 0 0 0-.783.121 1.291 1.291 0 0 0-.555.301c-.142.136-.213.322-.213.56 0 .267.082.47.246.604.163.135.414.203.75.203.28 0 .536-.053.767-.16.233-.108.45-.239.647-.39Zm10.874 1.152h-.798v-6.517h.798v6.517Zm10.436-5.462h-.899v-.817h.899v.818Zm-.05 5.462h-.797v-4.678h.797v4.678Zm13.263 0h-.793v-.499a8.457 8.457 0 0 0-.287.2 2.366 2.366 0 0 1-1.413.428c-.427 0-.791-.14-1.086-.42-.299-.278-.446-.635-.446-1.067 0-.355.076-.642.23-.86a1.55 1.55 0 0 1 .66-.517 3.562 3.562 0 0 1 1.039-.256c.433-.046.868-.08 1.303-.101v-.122a.907.907 0 0 0-.097-.444.685.685 0 0 0-.274-.276 1.156 1.156 0 0 0-.407-.131 3.359 3.359 0 0 0-1.197.049 5.166 5.166 0 0 0-.796.236h-.043v-.8c.156-.043.381-.089.675-.138.287-.05.578-.074.869-.075.334 0 .624.028.873.082.247.055.462.147.642.278.179.128.315.295.409.498.093.204.139.456.139.758v3.177Zm-.793-1.152v-1.302c-.243.015-.529.036-.858.063a4.614 4.614 0 0 0-.783.121 1.291 1.291 0 0 0-.556.301c-.142.136-.213.322-.213.56 0 .267.083.47.247.604.163.135.413.203.751.203a1.81 1.81 0 0 0 .767-.16c.232-.11.448-.239.645-.39Z"/></g><defs><clipPath id="a"><path fill="#fff" d="M0 0h110v60H0z"/></clipPath></defs></svg>